<svg width="47" height="47" viewBox="0 0 47 47" fill="none" xmlns="http://www.w3.org/2000/svg">
<path d="M9.79167 41.125C8.71458 41.125 7.79253 40.7415 7.02552 39.9745C6.25851 39.2075 5.875 38.2854 5.875 37.2083V9.79165C5.875 8.71457 6.25851 7.79252 7.02552 7.02551C7.79253 6.25849 8.71458 5.87499 9.79167 5.87499H27.2698L23.3531 9.79165H9.79167V37.2083H37.2083V23.5979L41.125 19.6812V37.2083C41.125 38.2854 40.7415 39.2075 39.9745 39.9745C39.2075 40.7415 38.2854 41.125 37.2083 41.125H9.79167ZM17.625 29.375V21.0521L35.5927 3.08436C35.9844 2.6927 36.425 2.39895 36.9146 2.20311C37.4042 2.00728 37.8937 1.90936 38.3833 1.90936C38.9056 1.90936 39.4033 2.00728 39.8766 2.20311C40.3498 2.39895 40.7823 2.6927 41.174 3.08436L43.9156 5.87499C44.2747 6.26665 44.5521 6.69912 44.7479 7.17238C44.9438 7.64565 45.0417 8.12707 45.0417 8.61665C45.0417 9.10624 44.9519 9.58766 44.7724 10.0609C44.5929 10.5342 44.3073 10.9667 43.9156 11.3583L25.9479 29.375H17.625ZM21.5417 25.4583H24.2833L35.6417 14.1L34.2708 12.7292L32.851 11.3583L21.5417 22.6677V25.4583Z" fill="white"/>
</svg>
