<svg width="40" height="40" viewBox="0 0 40 40" fill="none" xmlns="http://www.w3.org/2000/svg">
<path d="M20 39.1667C9.41425 39.1667 0.833332 30.5857 0.833332 20C0.833332 9.41425 9.41425 0.833328 20 0.833328C30.5857 0.833328 39.1667 9.41425 39.1667 20C39.1667 30.5857 30.5857 39.1667 20 39.1667ZM12.18 14.6985V14.894C12.18 15.1482 12.281 15.3919 12.4607 15.5716C12.6404 15.7514 12.8842 15.8523 13.1383 15.8523H15.0492C15.1748 15.8523 15.2992 15.8276 15.4153 15.7795C15.5313 15.7315 15.6367 15.661 15.7255 15.5722C15.8143 15.4834 15.8848 15.378 15.9329 15.2619C15.9809 15.1459 16.0057 15.0215 16.0057 14.8959C16.0057 12.4234 17.9185 11.1028 20.4907 11.1028C22.9977 11.1028 24.646 12.4234 24.646 14.3037C24.646 16.0823 23.7222 16.9084 21.4145 17.9645L20.7552 18.2597C18.8097 19.1183 18.0833 20.4025 18.0833 22.6469V22.875C18.0833 23.1292 18.1843 23.3729 18.364 23.5526C18.5437 23.7324 18.7875 23.8333 19.0417 23.8333H20.9526C21.0782 23.8333 21.2025 23.8086 21.3186 23.7605C21.4346 23.7125 21.5401 23.642 21.6289 23.5532C21.7177 23.4644 21.7881 23.359 21.8362 23.2429C21.8843 23.1269 21.909 23.0025 21.909 22.8769C21.909 21.8879 22.1735 21.4912 22.9632 21.1289L23.6244 20.8318C26.394 19.5783 28.4717 17.93 28.4717 14.3343V14.1369C28.4717 10.3457 25.175 7.54166 20.4907 7.54166C15.7412 7.54166 12.18 10.2787 12.18 14.6985ZM17.125 29.5661C17.125 31.2278 18.3881 32.4583 19.9827 32.4583C21.6119 32.4583 22.875 31.2278 22.875 29.5661C22.875 27.9043 21.6119 26.7083 19.9827 26.7083C18.3881 26.7083 17.125 27.9043 17.125 29.5661Z" fill="white"/>
</svg>
