<svg width="36" height="33" viewBox="0 0 36 33" fill="none" xmlns="http://www.w3.org/2000/svg">
<path fill-rule="evenodd" clip-rule="evenodd" d="M0.139805 4.11474C0.366733 3.49598 0.932357 3.06914 1.58877 3.0213L33.9661 0.662108C34.5896 0.616631 35.1899 0.921254 35.5262 1.45358C35.8626 1.9859 35.8799 2.65883 35.5712 3.20243L19.539 31.4305C19.2139 32.0027 18.5855 32.3303 17.9293 32.2696C17.273 32.2089 16.7085 31.7708 16.4834 31.1477L11.2867 16.7691L0.532199 5.90234C0.0660556 5.43133 -0.0871147 4.73352 0.139805 4.11474ZM14.7955 16.5631L18.4064 26.5541L29.2781 7.41234L14.7955 16.5631ZM27.462 4.53802L12.9794 13.6888L5.50647 6.13785L27.462 4.53802Z" fill="#006633"/>
</svg>
