<svg width="14" height="14" viewBox="0 0 14 14" fill="none" xmlns="http://www.w3.org/2000/svg">
<path d="M2.8 8.4H4.935L8.435 4.9C8.54 4.795 8.61875 4.67542 8.67125 4.54125C8.72375 4.40708 8.75 4.27583 8.75 4.1475C8.75 4.01917 8.72083 3.89375 8.6625 3.77125C8.60417 3.64875 8.52833 3.535 8.435 3.43L7.805 2.765C7.7 2.66 7.58333 2.58125 7.455 2.52875C7.32667 2.47625 7.1925 2.45 7.0525 2.45C6.92417 2.45 6.79292 2.47625 6.65875 2.52875C6.52458 2.58125 6.405 2.66 6.3 2.765L2.8 6.265V8.4ZM3.85 7.35V6.685L5.6175 4.9175L5.9675 5.2325L6.2825 5.5825L4.515 7.35H3.85ZM5.9675 5.2325L6.2825 5.5825L5.6175 4.9175L5.9675 5.2325ZM6.4225 8.4H11.2V7H7.8225L6.4225 8.4ZM0 14V1.4C0 1.015 0.137083 0.685417 0.41125 0.41125C0.685417 0.137083 1.015 0 1.4 0H12.6C12.985 0 13.3146 0.137083 13.5887 0.41125C13.8629 0.685417 14 1.015 14 1.4V9.8C14 10.185 13.8629 10.5146 13.5887 10.7887C13.3146 11.0629 12.985 11.2 12.6 11.2H2.8L0 14ZM2.205 9.8H12.6V1.4H1.4V10.5875L2.205 9.8Z" fill="#006633"/>
</svg>
