<svg width="284" height="74" viewBox="0 0 284 74" fill="none" xmlns="http://www.w3.org/2000/svg">
<path d="M110.934 39.5217V59.3111C110.934 61.4727 110.495 63.3972 109.617 65.0847C108.754 66.7722 107.444 68.104 105.689 69.0802C103.934 70.0425 101.733 70.5236 99.0858 70.5236C95.3106 70.5236 92.434 69.4986 90.4559 67.4485C88.4917 65.3985 87.5096 62.6581 87.5096 59.2274V39.5217H91.0827V59.332C91.0827 61.9259 91.7653 63.9272 93.1305 65.3357C94.5096 66.7443 96.5644 67.4485 99.2948 67.4485C101.161 67.4485 102.687 67.1138 103.871 66.4444C105.069 65.7611 105.954 64.8128 106.525 63.5995C107.11 62.3722 107.402 60.9567 107.402 59.3529V39.5217H110.934Z" fill="white"/>
<path d="M122.594 70.1053H119.041V39.5217H136.05V42.6595H122.594V53.8721H135.235V56.9891H122.594V70.1053Z" fill="white"/>
<path d="M160.31 70.1053L156.549 60.3988H144.304L140.564 70.1053H136.97L148.922 39.3962H152.119L163.988 70.1053H160.31ZM155.483 57.2401L151.91 47.5964C151.827 47.3454 151.687 46.934 151.492 46.3622C151.311 45.7904 151.123 45.1977 150.928 44.5841C150.733 43.9705 150.573 43.4754 150.448 43.0988C150.308 43.6706 150.155 44.2424 149.988 44.8142C149.835 45.372 149.681 45.895 149.528 46.3831C149.375 46.8573 149.243 47.2617 149.131 47.5964L145.495 57.2401H155.483Z" fill="white"/>
<path d="M168.23 39.5217H176.881C180.698 39.5217 183.567 40.0935 185.49 41.237C187.412 42.3806 188.373 44.3261 188.373 47.0734C188.373 48.2589 188.144 49.3257 187.684 50.2741C187.238 51.2084 186.583 51.9824 185.72 52.5961C184.856 53.2097 183.79 53.635 182.523 53.8721V54.0813C183.86 54.2905 185.044 54.674 186.075 55.2319C187.106 55.7897 187.914 56.5707 188.499 57.5748C189.084 58.5789 189.376 59.855 189.376 61.403C189.376 63.2857 188.938 64.8755 188.06 66.1725C187.196 67.4695 185.97 68.4527 184.382 69.1221C182.794 69.7775 180.914 70.1053 178.74 70.1053H168.23V39.5217ZM171.782 52.6379H177.633C180.294 52.6379 182.133 52.1986 183.149 51.32C184.18 50.4414 184.696 49.1584 184.696 47.4709C184.696 45.7277 184.083 44.4725 182.857 43.7055C181.645 42.9385 179.709 42.5549 177.048 42.5549H171.782V52.6379ZM171.782 55.6293V67.072H178.134C180.851 67.072 182.773 66.5421 183.902 65.4822C185.03 64.4083 185.594 62.9649 185.594 61.1519C185.594 59.9944 185.337 59.0042 184.821 58.1814C184.32 57.3586 183.498 56.7311 182.355 56.2987C181.227 55.8525 179.716 55.6293 177.821 55.6293H171.782Z" fill="white"/>
<path d="M208.956 42.2202C207.27 42.2202 205.752 42.5131 204.4 43.0988C203.063 43.6706 201.921 44.5074 200.974 45.6091C200.04 46.6969 199.323 48.0148 198.821 49.5628C198.32 51.1108 198.069 52.8541 198.069 54.7926C198.069 57.3586 198.466 59.59 199.26 61.4866C200.068 63.3693 201.266 64.8267 202.854 65.8587C204.456 66.8907 206.455 67.4067 208.851 67.4067C210.216 67.4067 211.498 67.2951 212.696 67.072C213.908 66.8349 215.085 66.5421 216.227 66.1934V69.2894C215.113 69.7078 213.943 70.0146 212.717 70.2099C211.491 70.419 210.035 70.5236 208.35 70.5236C205.243 70.5236 202.645 69.8821 200.556 68.5991C198.48 67.3021 196.92 65.4752 195.875 63.1183C194.844 60.7614 194.329 57.9792 194.329 54.7716C194.329 52.4566 194.649 50.3438 195.29 48.4332C195.945 46.5086 196.892 44.8491 198.132 43.4545C199.385 42.0599 200.918 40.986 202.729 40.2329C204.554 39.4659 206.643 39.0824 208.998 39.0824C210.544 39.0824 212.034 39.2358 213.469 39.5426C214.904 39.8494 216.2 40.2887 217.356 40.8605L215.935 43.8728C214.96 43.4266 213.887 43.0431 212.717 42.7223C211.561 42.3876 210.307 42.2202 208.956 42.2202Z" fill="white"/>
<path d="M225.798 37.5553V47.2826C225.798 47.8405 225.784 48.4053 225.756 48.9771C225.728 49.5349 225.679 50.0509 225.61 50.5251H225.839C226.313 49.7162 226.912 49.0398 227.637 48.4959C228.375 47.9381 229.211 47.5197 230.144 47.2408C231.077 46.9479 232.066 46.8015 233.111 46.8015C234.95 46.8015 236.482 47.0944 237.708 47.6801C238.948 48.2658 239.874 49.1723 240.487 50.3996C241.114 51.6268 241.428 53.2167 241.428 55.1691V70.1053H238.001V55.3992C238.001 53.4886 237.562 52.0591 236.684 51.1108C235.821 50.1625 234.49 49.6883 232.693 49.6883C230.994 49.6883 229.636 50.0161 228.619 50.6715C227.616 51.313 226.891 52.2614 226.445 53.5165C226.014 54.7716 225.798 56.3057 225.798 58.1187V70.1053H222.329V37.5553H225.798Z" fill="white"/>
<path d="M257.141 46.8015C259.872 46.8015 261.899 47.4151 263.222 48.6424C264.545 49.8696 265.207 51.829 265.207 54.5206V70.1053H262.679L262.01 66.7164H261.843C261.202 67.5531 260.533 68.2574 259.837 68.8292C259.14 69.387 258.332 69.8124 257.413 70.1053C256.508 70.3842 255.393 70.5236 254.07 70.5236C252.677 70.5236 251.437 70.2796 250.35 69.7915C249.278 69.3034 248.428 68.5642 247.801 67.5741C247.188 66.5839 246.882 65.3288 246.882 63.8086C246.882 61.5215 247.787 59.7643 249.598 58.5371C251.409 57.3098 254.167 56.6404 257.873 56.5288L261.822 56.3615V54.9599C261.822 52.9796 261.397 51.592 260.547 50.797C259.698 50.0021 258.5 49.6046 256.953 49.6046C255.755 49.6046 254.613 49.779 253.526 50.1276C252.44 50.4763 251.409 50.8877 250.434 51.3618L249.368 48.726C250.399 48.1961 251.583 47.7429 252.92 47.3663C254.258 46.9898 255.665 46.8015 257.141 46.8015ZM261.78 58.809L258.291 58.9554C255.435 59.067 253.422 59.5342 252.252 60.357C251.082 61.1798 250.496 62.3443 250.496 63.8505C250.496 65.1614 250.894 66.1307 251.688 66.7582C252.482 67.3858 253.533 67.6996 254.843 67.6996C256.877 67.6996 258.541 67.1348 259.837 66.0051C261.132 64.8755 261.78 63.1811 261.78 60.9218V58.809Z" fill="white"/>
<path d="M279.751 67.6787C280.322 67.6787 280.907 67.6298 281.506 67.5322C282.105 67.4346 282.592 67.3161 282.969 67.1766V69.8752C282.565 70.0565 282 70.2099 281.276 70.3354C280.565 70.4609 279.869 70.5236 279.186 70.5236C277.974 70.5236 276.874 70.3145 275.885 69.8961C274.896 69.4637 274.102 68.7386 273.503 67.7205C272.918 66.7024 272.625 65.2939 272.625 63.4949V49.8975H269.365V48.2031L272.646 46.8433L274.025 41.8646H276.115V47.178H282.822V49.8975H276.115V63.3903C276.115 64.8267 276.442 65.9005 277.097 66.6118C277.765 67.323 278.65 67.6787 279.751 67.6787Z" fill="white"/>
<path d="M21.4356 10.3975C19.1038 14.4519 18.2844 18.9632 18.8067 23.2759L23.6708 26.0939C22.2104 21.7266 22.5495 16.7783 25.0249 12.4756C29.6043 4.5182 39.7433 1.79456 47.6793 6.38776C55.6104 10.981 58.3283 21.1531 53.7489 29.1105C51.2736 33.4107 47.1694 36.184 42.6692 37.0977L47.5333 39.9132C51.5186 38.2075 55.0064 35.2405 57.3407 31.1886C63.0637 21.2424 59.665 8.52795 49.7537 2.79016C39.8399 -2.95259 27.1636 0.453835 21.4381 10.3975" fill="white"/>
<path d="M10.3658 71.2041C20.2796 76.9494 32.9584 73.5404 38.6814 63.5968C41.0132 59.5448 41.83 55.0311 41.3102 50.7159L36.4461 47.9004C37.9066 52.2652 37.5675 57.2159 35.0921 61.5211C30.5127 69.4761 20.3712 72.2022 12.4376 67.609C4.50657 63.0158 1.7911 52.8462 6.36804 44.8863C8.84588 40.5861 12.95 37.8127 17.4502 36.9016L12.5886 34.0836C8.60329 35.7868 5.11304 38.7537 2.78125 42.8082C-2.94426 52.7518 0.45441 65.4688 10.3658 71.2066" fill="white"/>
<path d="M60.8507 36.8097L63.0315 33.0209C56.2935 31.3425 49.1224 33.1873 44.0257 37.8847L47.8377 40.0895C51.5087 37.2194 56.2515 36.0202 60.8507 36.8097ZM72.4057 61.5211C67.8263 69.4786 57.6847 72.2022 49.7512 67.6115C43.7262 64.1182 40.7087 57.4071 41.6196 50.8947L37.8076 48.685C35.8892 57.3152 39.6443 66.5563 47.6793 71.2116C57.5931 76.9518 70.2719 73.5454 75.9949 63.6017C80.5496 55.6915 79.3292 46.0309 73.6532 39.5184L71.4279 43.3817C75.188 48.5385 75.7944 55.6369 72.4057 61.5236" fill="white"/>
<path d="M41.6296 44.6603L41.0157 44.3028L7.09334 24.6563C9.25928 27.2062 10.0539 30.2054 9.00184 32.003L41.5701 50.8699C41.7187 49.8395 41.9662 48.8141 42.3128 47.8061C42.3821 47.6124 42.4514 47.4188 42.5256 47.2251C42.5702 47.0389 42.5949 46.8477 42.5949 46.6491C42.5949 45.8422 42.2137 45.1222 41.6271 44.6628" fill="#FFCC00"/>
<path d="M2.89015 14.0572C1.48167 16.5574 2.9149 19.6981 5.18481 22.1065L41.8474 43.3445L41.981 43.4214C42.3276 43.6051 42.7261 43.7094 43.1494 43.7094C43.9118 43.7094 44.5925 43.3693 45.0554 42.8305C45.1 42.7734 45.147 42.7138 45.1941 42.6542C45.9862 41.6884 46.8748 40.8318 47.8328 40.087L2.89263 14.0572H2.89015Z" fill="#FFCC00"/>
</svg>
